<?xml version="1.0" encoding="UTF-8" standalone="no"?>
<!DOCTYPE svg PUBLIC "-//W3C//DTD SVG 1.1//EN" "http://www.w3.org/Graphics/SVG/1.1/DTD/svg11.dtd">
<svg version="1.1" xmlns:xl="http://www.w3.org/1999/xlink" xmlns="http://www.w3.org/2000/svg" xmlns:dc="http://purl.org/dc/elements/1.1/" viewBox="231 428 668 667" width="668" height="667">
  <defs>
    <linearGradient x1="0" x2="1" id="Gradient" gradientUnits="userSpaceOnUse">
      <stop offset="0" stop-color="#9662d0"/>
      <stop offset="1" stop-color="#dadada"/>
    </linearGradient>
    <linearGradient id="Obj_Gradient" xl:href="#Gradient" gradientTransform="translate(564.75 428.5) rotate(90) scale(666)"/>
  </defs>
  <g id="Canvas_1" stroke-opacity="1" fill="none" stroke-dasharray="none" fill-opacity="1" stroke="none">
    <title>Canvas 1</title>
    <g id="Canvas_1_Layer_1">
      <title>Layer 1</title>
      <g id="Graphic_23">
        <path d="M 800.2163 526.0337 C 930.2615 656.0782 930.2615 866.9218 800.2163 996.9663 C 670.1718 1127.0115 459.3282 1127.0115 329.2837 996.9663 C 199.23854 866.9218 199.23854 656.0782 329.2837 526.0337 C 459.3282 395.98854 670.1718 395.98854 800.2163 526.0337" fill="url(#Obj_Gradient)"/>
        <path d="M 800.2163 526.0337 C 930.2615 656.0782 930.2615 866.9218 800.2163 996.9663 C 670.1718 1127.0115 459.3282 1127.0115 329.2837 996.9663 C 199.23854 866.9218 199.23854 656.0782 329.2837 526.0337 C 459.3282 395.98854 670.1718 395.98854 800.2163 526.0337" stroke="#a5a5a5" stroke-linecap="round" stroke-linejoin="round" stroke-width="1"/>
      </g>
      <g id="Group_29">
        <g id="Group_25">
          <g id="Graphic_4">
            <ellipse cx="564.75" cy="717.75" rx="190.750304799787" ry="163.750261656435" fill="#333"/>
            <ellipse cx="564.75" cy="717.75" rx="190.750304799787" ry="163.750261656435" stroke="#666" stroke-linecap="round" stroke-linejoin="round" stroke-width="1"/>
          </g>
          <g id="Group_24">
            <g id="Group_22">
              <g id="Graphic_2">
                <path d="M 573.1667 963.7939 L 764.6373 845.3609 C 771.1648 841.3233 773.9057 833.2193 771.1689 826.0485 L 699.1676 637.3909 C 696.8016 631.1916 690.8547 627.096 684.21925 627.096 L 445.28075 627.096 C 438.6453 627.096 432.6984 631.1916 430.33243 637.3909 L 358.33107 826.0485 C 355.5943 833.2193 358.33516 841.3233 364.86267 845.3609 L 556.3333 963.7939 C 561.49097 966.9841 568.00903 966.9841 573.1667 963.7939 Z" fill="#ff4040"/>
                <path d="M 573.1667 963.7939 L 764.6373 845.3609 C 771.1648 841.3233 773.9057 833.2193 771.1689 826.0485 L 699.1676 637.3909 C 696.8016 631.1916 690.8547 627.096 684.21925 627.096 L 445.28075 627.096 C 438.6453 627.096 432.6984 631.1916 430.33243 637.3909 L 358.33107 826.0485 C 355.5943 833.2193 358.33516 841.3233 364.86267 845.3609 L 556.3333 963.7939 C 561.49097 966.9841 568.00903 966.9841 573.1667 963.7939 Z" stroke="#b34400" stroke-linecap="round" stroke-linejoin="round" stroke-width="1"/>
              </g>
              <g id="Graphic_7">
                <path d="M 419.25503 669.1177 L 442.0937 590.2605 C 442.70827 588.13855 444.92664 586.9166 447.0486 587.5311 C 447.31023 587.6069 447.56346 587.7092 447.8043 587.8365 L 520.39456 626.18654 C 522.34786 627.2185 523.09476 629.6385 522.0628 631.5918 C 521.633 632.4053 520.9359 633.0458 520.089 633.4053 L 424.66006 673.9125 C 422.62654 674.7757 420.2783 673.8269 419.4151 671.7934 C 419.0556 670.9465 418.9991 670.0015 419.25503 669.1177 Z" fill="#ff4040"/>
                <path d="M 419.25503 669.1177 L 442.0937 590.2605 C 442.70827 588.13855 444.92664 586.9166 447.0486 587.5311 C 447.31023 587.6069 447.56346 587.7092 447.8043 587.8365 L 520.39456 626.18654 C 522.34786 627.2185 523.09476 629.6385 522.0628 631.5918 C 521.633 632.4053 520.9359 633.0458 520.089 633.4053 L 424.66006 673.9125 C 422.62654 674.7757 420.2783 673.8269 419.4151 671.7934 C 419.0556 670.9465 418.9991 670.0015 419.25503 669.1177 Z" stroke="#b34400" stroke-linecap="round" stroke-linejoin="round" stroke-width="1"/>
              </g>
              <g id="Graphic_8">
                <path d="M 610.4404 626.18654 L 683.0306 587.8365 C 684.9839 586.8045 687.4039 587.55144 688.4359 589.50474 C 688.5631 589.7456 688.6654 589.9988 688.7412 590.2605 L 711.5799 669.1177 C 712.1945 671.23966 710.9725 673.458 708.85055 674.0726 C 707.9668 674.3285 707.0218 674.272 706.1749 673.9125 L 610.74596 633.4053 C 608.7124 632.54214 607.7637 630.1939 608.62686 628.1604 C 608.9864 627.31344 609.62685 626.6163 610.4404 626.18654 Z" fill="#ff4040"/>
                <path d="M 610.4404 626.18654 L 683.0306 587.8365 C 684.9839 586.8045 687.4039 587.55144 688.4359 589.50474 C 688.5631 589.7456 688.6654 589.9988 688.7412 590.2605 L 711.5799 669.1177 C 712.1945 671.23966 710.9725 673.458 708.85055 674.0726 C 707.9668 674.3285 707.0218 674.272 706.1749 673.9125 L 610.74596 633.4053 C 608.7124 632.54214 607.7637 630.1939 608.62686 628.1604 C 608.9864 627.31344 609.62685 626.6163 610.4404 626.18654 Z" stroke="#b34400" stroke-linecap="round" stroke-linejoin="round" stroke-width="1"/>
              </g>
              <g id="Graphic_11">
                <path d="M 472.0408 653.0077 C 469.98097 673.5507 442.4649 680.7154 434.1412 661.48735 C 429.39916 650.6971 440.27457 641.56625 446.69195 633.7704 C 452.9011 626.2485 456.2674 618.1396 456.1128 615.4838 C 457.91587 617.4399 466.7254 620.6274 475.9002 621.6192 C 485.94 622.7385 500.1335 621.0433 504.4678 631.6355 C 512.5839 651.1372 487.5238 665.4233 472.0408 653.0077 Z" fill="#ffc0c0"/>
                <path d="M 472.0408 653.0077 C 469.98097 673.5507 442.4649 680.7154 434.1412 661.48735 C 429.39916 650.6971 440.27457 641.56625 446.69195 633.7704 C 452.9011 626.2485 456.2674 618.1396 456.1128 615.4838 C 457.91587 617.4399 466.7254 620.6274 475.9002 621.6192 C 485.94 622.7385 500.1335 621.0433 504.4678 631.6355 C 512.5839 651.1372 487.5238 665.4233 472.0408 653.0077 Z" stroke="#b1001c" stroke-linecap="round" stroke-linejoin="round" stroke-width="1"/>
              </g>
              <g id="Graphic_12">
                <path d="M 658.2798 653.0077 C 642.07156 665.79635 617.8034 650.98 625.8528 631.6355 C 630.32055 620.7288 644.4434 622.2091 654.5092 621.4099 C 664.2332 620.65125 672.4047 617.4399 674.20775 615.4838 C 674.0531 618.1396 677.8799 626.6909 683.5398 633.9797 C 689.70884 641.9792 700.7879 651.0116 696.17936 661.48735 C 687.7889 680.87266 660.1041 672.7699 658.2798 653.0077 Z" fill="#ffc0c0"/>
                <path d="M 658.2798 653.0077 C 642.07156 665.79635 617.8034 650.98 625.8528 631.6355 C 630.32055 620.7288 644.4434 622.2091 654.5092 621.4099 C 664.2332 620.65125 672.4047 617.4399 674.20775 615.4838 C 674.0531 618.1396 677.8799 626.6909 683.5398 633.9797 C 689.70884 641.9792 700.7879 651.0116 696.17936 661.48735 C 687.7889 680.87266 660.1041 672.7699 658.2798 653.0077 Z" stroke="#b1001c" stroke-linecap="round" stroke-linejoin="round" stroke-width="1"/>
              </g>
            </g>
            <g id="Group_21">
              <g id="Graphic_9">
                <path d="M 564.75 774.5 C 515.2008 702.4524 374.74392 718.9917 374 802.3678 C 373.25608 849.2666 441.06007 865.8036 485.76806 884.3822 C 528.9844 902.281 560.2788 926.75 564.75 936.719 C 569.2212 926.75 603.49514 901.3762 643.73194 883.4774 C 687.696 863.7666 756.2439 847.9071 755.5 802.3678 C 754.7561 718.3119 611.6936 704.9464 564.75 774.5 Z" fill="#ffc0c0"/>
                <path d="M 564.75 774.5 C 515.2008 702.4524 374.74392 718.9917 374 802.3678 C 373.25608 849.2666 441.06007 865.8036 485.76806 884.3822 C 528.9844 902.281 560.2788 926.75 564.75 936.719 C 569.2212 926.75 603.49514 901.3762 643.73194 883.4774 C 687.696 863.7666 756.2439 847.9071 755.5 802.3678 C 754.7561 718.3119 611.6936 704.9464 564.75 774.5 Z" stroke="#b1001c" stroke-linecap="round" stroke-linejoin="round" stroke-width="1"/>
              </g>
              <g id="Graphic_13">
                <path d="M 601.5307 819.586 L 669.8104 800.0071 C 670.3413 799.8548 670.6483 799.3011 670.496 798.7702 C 670.3698 798.3299 669.9606 798.0317 669.5029 798.0463 L 657.2562 798.4371 C 657.17366 798.4397 657.0918 798.4526 657.0124 798.4753 L 588.7327 818.0542 C 588.2018 818.2065 587.8948 818.7602 588.04706 819.2911 C 588.1733 819.7314 588.5825 820.0296 589.0402 820.015 L 601.2869 819.6242 C 601.3694 819.6216 601.4513 819.6087 601.5307 819.586 Z" fill="#666"/>
                <path d="M 601.5307 819.586 L 669.8104 800.0071 C 670.3413 799.8548 670.6483 799.3011 670.496 798.7702 C 670.3698 798.3299 669.9606 798.0317 669.5029 798.0463 L 657.2562 798.4371 C 657.17366 798.4397 657.0918 798.4526 657.0124 798.4753 L 588.7327 818.0542 C 588.2018 818.2065 587.8948 818.7602 588.04706 819.2911 C 588.1733 819.7314 588.5825 820.0296 589.0402 820.015 L 601.2869 819.6242 C 601.3694 819.6216 601.4513 819.6087 601.5307 819.586 Z" stroke="#283450" stroke-linecap="round" stroke-linejoin="round" stroke-width="1"/>
              </g>
              <g id="Graphic_14">
                <path d="M 524.1456 819.586 L 455.86586 800.0071 C 455.33497 799.8548 455.028 799.3011 455.18023 798.7702 C 455.30647 798.3299 455.71564 798.0317 456.1734 798.0463 L 468.4201 798.4371 C 468.5026 798.4397 468.5845 798.4526 468.66383 798.4753 L 536.9436 818.0542 C 537.47447 818.2065 537.7814 818.7602 537.6292 819.2911 C 537.50296 819.7314 537.0938 820.0296 536.63605 820.015 L 524.38934 819.6242 C 524.3068 819.6216 524.22496 819.6087 524.1456 819.586 Z" fill="#666"/>
                <path d="M 524.1456 819.586 L 455.86586 800.0071 C 455.33497 799.8548 455.028 799.3011 455.18023 798.7702 C 455.30647 798.3299 455.71564 798.0317 456.1734 798.0463 L 468.4201 798.4371 C 468.5026 798.4397 468.5845 798.4526 468.66383 798.4753 L 536.9436 818.0542 C 537.47447 818.2065 537.7814 818.7602 537.6292 819.2911 C 537.50296 819.7314 537.0938 820.0296 536.63605 820.015 L 524.38934 819.6242 C 524.3068 819.6216 524.22496 819.6087 524.1456 819.586 Z" stroke="#283450" stroke-linecap="round" stroke-linejoin="round" stroke-width="1"/>
              </g>
              <g id="Graphic_15">
                <path d="M 570.40685 904.6569 L 589.09315 923.3431 C 592.21734 926.4673 592.21734 931.5327 589.09315 934.6569 L 570.40685 953.3431 C 567.28266 956.4673 562.21734 956.4673 559.09315 953.3431 L 540.40685 934.6569 C 537.28266 931.5327 537.28266 926.4673 540.40685 923.3431 L 559.09315 904.6569 C 562.21734 901.5327 567.28266 901.5327 570.40685 904.6569 Z" fill="#666"/>
                <path d="M 570.40685 904.6569 L 589.09315 923.3431 C 592.21734 926.4673 592.21734 931.5327 589.09315 934.6569 L 570.40685 953.3431 C 567.28266 956.4673 562.21734 956.4673 559.09315 953.3431 L 540.40685 934.6569 C 537.28266 931.5327 537.28266 926.4673 540.40685 923.3431 L 559.09315 904.6569 C 562.21734 901.5327 567.28266 901.5327 570.40685 904.6569 Z" stroke="#283450" stroke-linecap="round" stroke-linejoin="round" stroke-width="1"/>
              </g>
            </g>
            <g id="Group_20">
              <g id="Graphic_5">
                <path d="M 725 807.75 C 788.5128 807.75 840 767.4556 840 717.75 C 840 668.04444 788.5128 627.75 725 627.75 L 725 807.75" fill="#333"/>
                <path d="M 725 807.75 C 788.5128 807.75 840 767.4556 840 717.75 C 840 668.04444 788.5128 627.75 725 627.75 L 725 807.75" stroke="#666" stroke-linecap="round" stroke-linejoin="round" stroke-width="1"/>
              </g>
              <g id="Graphic_3">
                <path d="M 404.5 627.75 C 340.98722 627.75 289.5 668.04444 289.5 717.75 C 289.5 767.4556 340.98722 807.75 404.5 807.75 L 404.5 627.75" fill="#333"/>
                <path d="M 404.5 627.75 C 340.98722 627.75 289.5 668.04444 289.5 717.75 C 289.5 767.4556 340.98722 807.75 404.5 807.75 L 404.5 627.75" stroke="#666" stroke-linecap="round" stroke-linejoin="round" stroke-width="1"/>
              </g>
            </g>
          </g>
        </g>
        <g id="Group_28">
          <g id="Graphic_26">
            <path d="M 725 809 L 722.5 809 C 721.25 809 720 786.125 720 717.5 C 720 648.875 721.25 626 722.5 626 L 725 626 Z" fill="#333"/>
            <path d="M 725 809 L 722.5 809 C 721.25 809 720 786.125 720 717.5 C 720 648.875 721.25 626 722.5 626 L 725 626 Z" stroke="#666" stroke-linecap="round" stroke-linejoin="round" stroke-width="1"/>
          </g>
          <g id="Graphic_27">
            <path d="M 405 626 L 407.5 626 C 408.75 626 410 648.875 410 717.5 C 410 786.125 408.75 809 407.5 809 L 405 809 Z" fill="#333"/>
            <path d="M 405 626 L 407.5 626 C 408.75 626 410 648.875 410 717.5 C 410 786.125 408.75 809 407.5 809 L 405 809 Z" stroke="#666" stroke-linecap="round" stroke-linejoin="round" stroke-width="1"/>
          </g>
        </g>
      </g>
    </g>
  </g>
</svg>
